# xmcd
#
# Track frame offsets: 
#        150
#        3707
#        26560
#        48735
#        68142
#        87277
#        106457
#        127817
#        153805
#        172977
#        192370
#        211510
#        233832
#
# Disc length: 3150 seconds
#
# Revision: 0
# Processed by: cddbd v1.5.2PL0 Copyright (c) Steve Scherf et al.
# Submitted via: ExactAudioCopy v1.1
#
DISCID=a00c4c0d
DTITLE=陶喆 - I'm Ok
DYEAR=1900
DGENRE=R&B
TTITLE0=Doxology
TTITLE1=找自己
TTITLE2=小鎮姑娘
TTITLE3=夜來香
TTITLE4=普通朋友
TTITLE5=I'm OK
TTITLE6=不一樣
TTITLE7=說走就走
TTITLE8=多謝你
TTITLE9=馬戲團
TTITLE10=天天
TTITLE11=Angeline
TTITLE12=Amen
EXTD=
EXTT0=
EXTT1=
EXTT2=
EXTT3=
EXTT4=
EXTT5=
EXTT6=
EXTT7=
EXTT8=
EXTT9=
EXTT10=
EXTT11=
EXTT12=
PLAYORDER=
